# xmcd
# 
# Track frame offsets:
#     150
#     17833
#     39285
#     64347
#     82030
#     103482
#     148333
# 
# Disc length: 3059
# 
# Revision: 0
# Processed by: cddbd v1.5.2PL0 Copyright (c) Steve Scherf et al.
# Submitted via: fre:ac v1.1beta1pre2
# 
DISCID=650bf107
DTITLE=長谷川明子 - 蒼凛のペンデュラム
DYEAR=2011
DGENRE=Game
TTITLE0=蒼凛のペンデュラム
TTITLE1=Fateful Actor
TTITLE2=Fateful Actor (Relieve ver.)
TTITLE3=蒼凛のペンデュラム (Instrumental)
TTITLE4=Fateful Actor (Instrumental)
TTITLE5=Fateful Actor (Relieve ver. Instrumental)
TTITLE6=Data track
EXTD=
EXTT0=FVCG-1150
EXTT1=
EXTT2=
EXTT3=
EXTT4=
EXTT5=
EXTT6=
PLAYORDER=
